<?xml version="1.0" encoding="utf-8"?>
<svg viewBox="39.153 56.729 400 360" xmlns="http://www.w3.org/2000/svg">
  <ellipse style="stroke: rgb(0, 0, 0); stroke-width: 0px; fill: rgb(0, 171, 130);" cx="239.153" cy="236.729" rx="200" ry="180" transform="matrix(1, 0, 0, 1, 0, -1.1368683772161603e-13)"/>
  <g transform="matrix(0.5163779258728027, 0, 0, 0.5163779258728027, 119.10439478016497, 102.34342346107087)" style="">
    <path d="M85.33,28.44c-31.38,0-56.89,25.51-56.89,56.89v341.33C12.71,426.67,0,439.38,0,455.11s12.71,28.44,28.44,28.44h256 c15.73,0,28.44-12.71,28.44-28.44s-12.71-28.44-28.44-28.44v-128h14.22c19.64,0,35.56,15.91,35.56,35.56v28.44 c0,35.38,28.62,64,64,64s64-28.62,64-64V252.71c28.89-9.07,49.78-36,49.78-67.82v-28.44c0-7.82-6.4-14.22-14.22-14.22h-14.22V99.56 c0-7.82-6.4-14.22-14.22-14.22c-7.82,0-14.22,6.4-14.22,14.22v42.67h-28.44V99.56c0-7.82-6.4-14.22-14.22-14.22 c-7.82,0-14.22,6.4-14.22,14.22v42.67H384c-7.82,0-14.22,6.4-14.22,14.22v28.44c0,31.82,20.89,58.76,49.78,67.82v109.96 c0,11.82-9.51,21.33-21.33,21.33s-21.33-9.51-21.33-21.33v-28.44c0-43.2-35.02-78.22-78.22-78.22h-14.22V85.33 c0-31.38-25.51-56.89-56.89-56.89H85.33z M192.8,101.96c5.33,3.56,7.56,10.22,5.6,16.27l-22.22,66.58h51.38 c5.96,0,11.29,3.73,13.33,9.24s0.44,11.82-4.09,15.73l-99.56,85.33c-4.89,4.18-11.91,4.53-17.16,0.98 c-5.24-3.56-7.56-10.22-5.6-16.27l22.22-66.58H85.33c-5.96,0-11.29-3.73-13.33-9.24s-0.44-11.82,4.09-15.73l99.56-85.33 C180.53,98.76,187.56,98.4,192.8,101.96L192.8,101.96z" style="fill: rgb(255, 255, 255);"/>
  </g>
</svg>